<svg xmlns="http://www.w3.org/2000/svg" width="698.984" height="494.148" viewBox="0 0 698.984 494.148">
  <g id="desing" transform="translate(-119.677 -373.288)">
    <path id="Path_1" data-name="Path 1" d="M259.791,859.594S213.742,819,152.722,684.259s-37.8-293.4,71.87-308.651,194.82,49.7,194.82,49.7,122.316-39.077,219.95-12.353,88.025,157.681,88.025,157.681S788.955,607,814.08,689.622s-61.311,169.621-61.311,169.621Z" transform="translate(0 0)" fill="#dde8fe"/>
    <rect id="Rectangle_1" data-name="Rectangle 1" width="585.098" height="11.652" rx="5.826" transform="translate(218.428 855.717)" fill="#4951ec"/>
    <path id="Path_2" data-name="Path 2" d="M928.264,975.485H536.378c-6.789,0-12.293-5.134-12.293-11.468L516.63,695.726c0-6.334,5.5-11.468,12.293-11.468H939.447c6.789,0,12.293,5.135,12.293,11.468L940.557,964.017C940.557,970.351,935.053,975.485,928.264,975.485Z" transform="translate(-245.533 -192.349)" fill="#eae9f3"/>
    <path id="Path_3" data-name="Path 3" d="M962.4,690.536a10.88,10.88,0,0,1,2.066,6.365L953.288,965.192c0,6.333-5.5,11.468-12.293,11.468H549.108a12.814,12.814,0,0,1-7.518-2.394,12.533,12.533,0,0,0,10.227,5.1H943.7c6.789,0,12.293-5.134,12.293-11.469l11.182-268.29A11.2,11.2,0,0,0,962.4,690.536Z" transform="translate(-260.972 -196.232)" fill="#4951ec"/>
    <path id="Path_4" data-name="Path 4" d="M568.763,956.829,561.308,716.34c0-6.334,5.5-11.468,12.293-11.468H954.323c6.789,0,12.293,5.134,12.293,11.468L955.434,956.829c0,6.333-5.5,11.468-12.293,11.468H581.056C574.266,968.3,568.763,963.162,568.763,956.829Z" transform="translate(-273.169 -205.1)" fill="#7c9af2"/>
    <path id="Path_5" data-name="Path 5" d="M567.3,972.291,559.843,731.8c0-6.334,5.5-11.469,12.293-11.469H952.858c6.789,0,12.293,5.134,12.293,11.469L953.969,972.291c0,6.334-5.5,11.468-12.293,11.468H579.591C572.8,983.759,567.3,978.625,567.3,972.291Z" transform="translate(-272.262 -214.663)" fill="#92b5f9"/>
    <g id="Group_1" data-name="Group 1" transform="translate(302.21 520.199)">
      <path id="Path_6" data-name="Path 6" d="M963.29,992.789h-6.86a.372.372,0,0,1,0-.745h6.149l.1-2.078a.363.363,0,0,1,.389-.354.371.371,0,0,1,.354.389Zm-15.8,0h-8.941a.372.372,0,0,1,0-.745h8.941a.372.372,0,0,1,0,.745Zm-17.881,0h-8.941a.372.372,0,0,1,0-.745h8.941a.372.372,0,0,1,0,.745Zm-17.881,0h-8.941a.372.372,0,0,1,0-.745h8.941a.372.372,0,0,1,0,.745Zm-17.881,0h-8.941a.372.372,0,0,1,0-.745h8.941a.372.372,0,0,1,0,.745Zm-17.881,0h-8.941a.372.372,0,0,1,0-.745h8.941a.372.372,0,0,1,0,.745Zm-17.881,0h-8.941a.372.372,0,0,1,0-.745h8.941a.372.372,0,0,1,0,.745Zm-17.881,0h-8.941a.372.372,0,0,1,0-.745H840.2a.372.372,0,0,1,0,.745Zm-17.881,0h-8.941a.372.372,0,0,1,0-.745h8.941a.372.372,0,0,1,0,.745Zm-17.881,0H795.5a.372.372,0,0,1,0-.745h8.941a.372.372,0,0,1,0,.745Zm-17.881,0h-8.941a.372.372,0,1,1,0-.745h8.941a.372.372,0,0,1,0,.745Zm-17.881,0h-8.94a.372.372,0,1,1,0-.745h8.94a.372.372,0,1,1,0,.745Zm-17.881,0h-8.94a.372.372,0,0,1,0-.745h8.94a.372.372,0,1,1,0,.745Zm-17.88,0H723.98a.372.372,0,0,1,0-.745h8.941a.372.372,0,1,1,0,.745Zm-17.881,0H706.1a.372.372,0,1,1,0-.745h8.94a.372.372,0,1,1,0,.745Zm-17.881,0h-8.94a.372.372,0,1,1,0-.745h8.94a.372.372,0,1,1,0,.745Zm-17.881,0h-8.94a.372.372,0,1,1,0-.745h8.94a.372.372,0,1,1,0,.745Zm-17.881,0h-8.94a.372.372,0,1,1,0-.745h8.94a.372.372,0,1,1,0,.745Zm-17.881,0h-8.94a.372.372,0,1,1,0-.745h8.94a.372.372,0,1,1,0,.745Zm-17.881,0H616.7a.372.372,0,1,1,0-.745h8.94a.372.372,0,1,1,0,.745Zm-17.881,0H605.46l-.288-9.3a.373.373,0,0,1,.361-.384.38.38,0,0,1,.385.361l.265,8.575h1.572a.372.372,0,1,1,0,.745Zm355.707-11.364h-.018a.371.371,0,0,1-.354-.389l.415-8.931a.372.372,0,0,1,.743.034l-.415,8.931A.372.372,0,0,1,963.463,981.425Zm-358.2-6.508a.373.373,0,0,1-.372-.361l-.276-8.936a.372.372,0,1,1,.744-.023l.277,8.936a.373.373,0,0,1-.36.384Zm359.026-11.353h-.018a.371.371,0,0,1-.354-.389l.415-8.931a.365.365,0,0,1,.389-.354.371.371,0,0,1,.354.389l-.415,8.931A.372.372,0,0,1,964.293,963.564Zm-359.58-6.519a.373.373,0,0,1-.372-.361l-.277-8.936a.373.373,0,0,1,.361-.384.377.377,0,0,1,.384.361l.276,8.936a.372.372,0,0,1-.36.384ZM965.123,945.7h-.017a.372.372,0,0,1-.354-.389l.416-8.93a.372.372,0,1,1,.744.035l-.416,8.93A.372.372,0,0,1,965.123,945.7Zm-360.964-6.53a.373.373,0,0,1-.372-.361l-.277-8.936a.373.373,0,0,1,.361-.384.384.384,0,0,1,.384.361l.277,8.936a.373.373,0,0,1-.361.384Zm361.8-11.332h-.017a.371.371,0,0,1-.354-.389L966,918.52a.36.36,0,0,1,.39-.354.371.371,0,0,1,.354.39l-.415,8.931A.372.372,0,0,1,965.954,927.841ZM603.605,921.3a.372.372,0,0,1-.372-.361L602.956,912a.372.372,0,0,1,.36-.384.36.36,0,0,1,.384.36l.277,8.936a.373.373,0,0,1-.361.384Zm363.18-11.321h-.018a.371.371,0,0,1-.354-.389l.415-8.93a.364.364,0,0,1,.39-.355.372.372,0,0,1,.354.389l-.415,8.93A.372.372,0,0,1,966.785,909.979Zm-363.734-6.551a.373.373,0,0,1-.372-.361l-.277-8.936a.372.372,0,0,1,.361-.384.366.366,0,0,1,.384.361l.277,8.936a.373.373,0,0,1-.361.384Zm364.565-11.31H967.6a.371.371,0,0,1-.354-.389l.416-8.931a.366.366,0,0,1,.389-.354.371.371,0,0,1,.354.389l-.415,8.931A.372.372,0,0,1,967.615,892.118ZM602.5,885.557a.373.373,0,0,1-.372-.361l-.276-8.936a.373.373,0,0,1,.36-.384.362.362,0,0,1,.384.361l.276,8.936a.372.372,0,0,1-.36.384Zm365.948-11.3h-.017a.372.372,0,0,1-.354-.389l.416-8.931a.365.365,0,0,1,.389-.354.372.372,0,0,1,.355.389l-.416,8.931A.372.372,0,0,1,968.445,874.257Zm-366.5-6.572a.372.372,0,0,1-.372-.36l-.277-8.937a.373.373,0,1,1,.745-.023l.277,8.936a.372.372,0,0,1-.361.384ZM969.276,856.4h-.018a.373.373,0,0,1-.354-.39l.415-8.931a.391.391,0,0,1,.39-.355.371.371,0,0,1,.354.39l-.415,8.931A.372.372,0,0,1,969.276,856.4Zm-367.887-6.584a.373.373,0,0,1-.372-.361l-.277-8.936a.372.372,0,0,1,.361-.384.36.36,0,0,1,.384.36l.277,8.936a.372.372,0,0,1-.36.384Zm368.719-11.278h-.018a.372.372,0,0,1-.354-.389l.415-8.931a.372.372,0,0,1,.744.034l-.415,8.931A.372.372,0,0,1,970.108,838.534Zm-369.273-6.594a.372.372,0,0,1-.372-.361l-.277-8.936a.373.373,0,0,1,.361-.384.378.378,0,0,1,.384.361l.277,8.936a.373.373,0,0,1-.361.384Zm370.1-11.267h-.017a.372.372,0,0,1-.354-.389l.415-8.931a.372.372,0,1,1,.743.035l-.415,8.931A.372.372,0,0,1,970.937,820.672Zm-370.656-6.6a.373.373,0,0,1-.372-.361l-.277-8.936a.372.372,0,0,1,.361-.384.376.376,0,0,1,.384.36l.277,8.936a.373.373,0,0,1-.361.384Zm371.487-11.257h-.017a.371.371,0,0,1-.354-.389l.415-8.931a.376.376,0,0,1,.389-.355.372.372,0,0,1,.355.389l-.415,8.931A.372.372,0,0,1,971.768,802.811ZM599.727,796.2a.372.372,0,0,1-.372-.361l-.277-8.936a.373.373,0,0,1,.36-.384.361.361,0,0,1,.384.361l.277,8.936a.372.372,0,0,1-.36.384ZM972.6,784.949h-.018a.372.372,0,0,1-.354-.389l.415-8.931a.365.365,0,0,1,.389-.355.371.371,0,0,1,.354.389l-.415,8.931A.372.372,0,0,1,972.6,784.949Zm-373.425-6.626a.373.373,0,0,1-.372-.361l-.277-8.936a.373.373,0,0,1,.361-.384.369.369,0,0,1,.384.361l.277,8.936a.372.372,0,0,1-.361.384ZM973.43,767.088h-.018a.373.373,0,0,1-.354-.389l.35-7.533h-.619a.372.372,0,1,1,0-.745h1.4l-.386,8.313A.373.373,0,0,1,973.43,767.088Zm-374.81-6.637a.372.372,0,0,1-.372-.361l-.052-1.67h8.038a.372.372,0,1,1,0,.745h-7.27l.028.9a.373.373,0,0,1-.36.384Zm365.228-1.286h-8.941a.372.372,0,1,1,0-.745h8.941a.372.372,0,0,1,0,.745Zm-17.881,0h-8.941a.372.372,0,1,1,0-.745h8.941a.372.372,0,0,1,0,.745Zm-17.881,0h-8.941a.372.372,0,1,1,0-.745h8.941a.372.372,0,0,1,0,.745Zm-17.881,0h-8.941a.372.372,0,1,1,0-.745h8.941a.372.372,0,0,1,0,.745Zm-17.881,0h-8.941a.372.372,0,1,1,0-.745h8.941a.372.372,0,0,1,0,.745Zm-17.881,0H865.5a.372.372,0,1,1,0-.745h8.941a.372.372,0,0,1,0,.745Zm-17.881,0h-8.941a.372.372,0,0,1,0-.745h8.941a.372.372,0,0,1,0,.745Zm-17.881,0h-8.941a.372.372,0,0,1,0-.745h8.941a.372.372,0,0,1,0,.745Zm-17.881,0h-8.941a.372.372,0,0,1,0-.745H820.8a.372.372,0,0,1,0,.745Zm-17.881,0h-8.941a.372.372,0,0,1,0-.745h8.941a.372.372,0,0,1,0,.745Zm-17.881,0H776.1a.372.372,0,1,1,0-.745h8.94a.372.372,0,0,1,0,.745Zm-17.88,0h-8.94a.372.372,0,1,1,0-.745h8.94a.372.372,0,1,1,0,.745Zm-17.881,0h-8.94a.372.372,0,1,1,0-.745h8.94a.372.372,0,1,1,0,.745Zm-17.881,0h-8.94a.372.372,0,1,1,0-.745h8.94a.372.372,0,1,1,0,.745Zm-17.881,0h-8.94a.372.372,0,1,1,0-.745h8.94a.372.372,0,1,1,0,.745Zm-17.881,0H686.7a.372.372,0,1,1,0-.745h8.94a.372.372,0,1,1,0,.745Zm-17.881,0h-8.94a.372.372,0,1,1,0-.745h8.94a.372.372,0,1,1,0,.745Zm-17.881,0h-8.94a.372.372,0,1,1,0-.745h8.94a.372.372,0,1,1,0,.745Zm-17.881,0h-8.94a.372.372,0,1,1,0-.745h8.94a.372.372,0,1,1,0,.745Zm-17.881,0h-8.94a.372.372,0,1,1,0-.745h8.94a.372.372,0,1,1,0,.745Z" transform="translate(-598.195 -758.42)" fill="#dde8fe"/>
    </g>
    <path id="Path_7" data-name="Path 7" d="M1043.3,841.5s5.3,53.642,3.02,71.9l-13.078,138.576h112.872s-6.333-118.087-6.333-127.028-1.863-83.443-1.863-83.443l-17.695-8.941L1075.711,832Z" transform="translate(-565.082 -283.732)" fill="#bed1f9"/>
    <g id="Group_2" data-name="Group 2" transform="translate(486.488 549.104)">
      <path id="Path_8" data-name="Path 8" d="M1103.565,834.2l-22.278,6.237s8.919,44.535,14.241,49.857-.9,9.313,3.567,13.784,29.242,38.059,29.242,38.059Z" transform="translate(-1081.287 -834.195)" fill="#92b5f9"/>
      <path id="Path_9" data-name="Path 9" d="M1227.354,838.02,1204.631,944.5s24.16-42.7,26.227-44.764,0-10.8,0-14.9,12.85-39.723,12.85-39.723S1231.975,838.02,1227.354,838.02Z" transform="translate(-1157.581 -836.561)" fill="#92b5f9"/>
    </g>
    <g id="Group_3" data-name="Group 3" transform="translate(486.788 548.266)">
      <path id="Path_10" data-name="Path 10" d="M1105.913,832l-23.841,2.421s8.62,43.85,13.942,49.172-.9,9.313,3.567,13.784,29.242,43.4,29.242,43.4Z" transform="translate(-1082.072 -831.998)" fill="#dde8fe"/>
      <path id="Path_11" data-name="Path 11" d="M1226.237,833.462l-21.606,108.216s24.16-48.037,26.227-50.1,0-10.8,0-14.9,13.073-38,13.073-38S1230.858,833.462,1226.237,833.462Z" transform="translate(-1157.88 -832.904)" fill="#dde8fe"/>
    </g>
    <path id="Path_12" data-name="Path 12" d="M1196.33,1228.35l3.166-111.2-.652,111.2Z" transform="translate(-665.958 -460.114)" fill="#92b5f9"/>
    <rect id="Rectangle_2" data-name="Rectangle 2" width="84.934" height="8.94" transform="translate(457.359 783.136)" fill="#7c9af2"/>
    <path id="Path_13" data-name="Path 13" d="M1090.746,1512.447h-70.4l-2.237-41.289h74.876Z" transform="translate(-555.719 -679.081)" fill="#7c9af2"/>
    <path id="Path_14" data-name="Path 14" d="M1092.983,1471.158h-74.876l2.236,41.288h9.259c.911-6.425,2.726-13.27,6.2-18.763,6.278-9.927,37.262-13.828,56.79-15.317Z" transform="translate(-555.719 -679.081)" fill="#4951ec"/>
    <path id="Path_15" data-name="Path 15" d="M1064.56,1601.748H873.087a22.352,22.352,0,0,1,22.351-22.351h146.771a22.351,22.351,0,0,1,22.351,22.351Z" transform="translate(-466.018 -746.032)" fill="#4951ec"/>
    <path id="Path_16" data-name="Path 16" d="M776.8,833.748l-6.505-23.289L741.7,817.79s4.077,12.685,6.923,14.426l11.59,7.091h0l25.558,50.7,18.39-22.718Z" transform="translate(-384.751 -270.41)" fill="#ef7f7f"/>
    <path id="Path_17" data-name="Path 17" d="M1156.965,528.32s21.792-2.665,31.105,1.777,27.566,22.389,22.723,57.216c0,0,3.911,1.244,5.029,6.575s1.211,14.837-8.009,23.633-24.772,7.818-32.781,7.818-30.546-6.752-36.32-19.191S1156.965,528.32,1156.965,528.32Z" transform="translate(-629.764 -95.404)" fill="#0b0754"/>
    <path id="Path_18" data-name="Path 18" d="M1168.149,542.614c-5.844-.55-10.713,2.135-14.626,6.542-4.945,14.553-12.856,39.451-14.69,54.814a45.151,45.151,0,0,0,5.79,17.162q.768,1.267,1.609,2.419c7.724,6.074,19.089,9.746,26.068,10.741,21.724-2.919,27.835-22.98,27.294-45.093-.146-5.958,4.113-24.507-5.108-36.494C1188.292,544.653,1177.62,541.681,1168.149,542.614Z" transform="translate(-630.394 -104.634)" fill="#0b0754"/>
    <path id="Path_19" data-name="Path 19" d="M1149.973,723.917s1.118,15.087,0,21.978a28.443,28.443,0,0,1-5.4,12.107l22.91,108.774,21.606-108.216s-5.363-3.288-6.891-12.666-1.49-33.526-1.49-33.526Z" transform="translate(-633.943 -209.737)" fill="#fb9390"/>
    <path id="Path_20" data-name="Path 20" d="M1175.122,977.048l16.818-84.239c-12.824,1.4-25.546-.218-35.016-2.164Z" transform="translate(-641.583 -320.008)" fill="#0b0754"/>
    <path id="Path_21" data-name="Path 21" d="M1191.94,892.809l-.358.038c-4.211,17.209-13.831,55.365-17.112,58.646-3.151,3.151-12.763-38.887-17.525-60.844l-.021,0,18.2,86.4Z" transform="translate(-641.583 -320.008)" fill="#0b0754"/>
    <path id="Path_22" data-name="Path 22" d="M1171.412,722.1c3.29,12.822,11.265,24.859,26.447,20.867.184-.048.361-.1.54-.156-1.122-10.719-1.091-30.441-1.091-30.441Z" transform="translate(-650.545 -209.737)" fill="#ef7f7f" opacity="0.53" style="mix-blend-mode: multiply;isolation: isolate"/>
    <path id="Path_23" data-name="Path 23" d="M1189.441,550.49s13.224-2.049,20.488,8.568,3.911,28.5,3.911,32.968,2.142,36.879-19,41.908-28.309-18.067-28.309-32.037S1171.722,552.237,1189.441,550.49Z" transform="translate(-647.526 -109.509)" fill="#fb9390"/>
    <path id="Path_24" data-name="Path 24" d="M1184.923,577.87c-.742,1.615-1.434,3.326-2.073,5.106a167.655,167.655,0,0,1,22.182-5.09c2.987,10.33,9.292,17.421,19.652,17.421a51.372,51.372,0,0,0-1.167-13.116C1211.394,577.229,1197.639,570.132,1184.923,577.87Z" transform="translate(-657.62 -124.423)" fill="#fd5e5a" opacity="0.53" style="mix-blend-mode: multiply;isolation: isolate"/>
    <path id="Path_25" data-name="Path 25" d="M772.525,783.021c-.254-.313-21.412-20.452-25.6-19.191-6.962,1.815,8.511,13.361,10.186,15.526a23.378,23.378,0,0,1,2.232,3.73c-.548.157-1.062.3-1.523.41-3.984.959-14.617,2.945-16.129,5.417,0,0-.286,13.927,3.372,14s7.359-1.261,11.286-.866a8.923,8.923,0,0,0,5.51-1.782c.246-.163.477-.327.694-.488a2.848,2.848,0,0,0-.122,2.864c1.876,3.812,14.853-2.762,15.416-5.2S775.521,786.707,772.525,783.021Zm-2.97,12.593a16.762,16.762,0,0,0-5.215,2.349c-.5-1.314-2.983-8.012-2.574-10.683l0,0c1.807-1.91,5.753-1.966,7.683-1.139h0a1.826,1.826,0,0,1,.539.941C770.6,789.615,771.909,795.048,769.555,795.615Z" transform="translate(-384.742 -241.532)" fill="#fb9390"/>
    <path id="Path_26" data-name="Path 26" d="M818.4,893.034s30.174,77.484,41.722,83.444,53.871-58.491,53.871-58.491,1.633-61.087-3.582-61.087-26.656,25.5-32.825,40.843c-6.275,15.605-6.054,23.492-14.485,8.329-8.613-15.491-23.748-36.3-23.748-36.3C830.662,878.464,818.4,893.034,818.4,893.034Z" transform="translate(-432.191 -299.135)" fill="#dde8fe"/>
    <path id="Path_27" data-name="Path 27" d="M1145.73,530.181s-7.451-.931-11.921,2.608-14.342,5.215-20.116,32.6-1.117,30.547-1.117,30.547,6.136,12.666-1.775,22.351-23.434,6.026-32.125.932c-12.639-7.409-10.39-33.108-5.07-49.921a49.818,49.818,0,0,1,1.977-5.7c1.67-3.78,2.223-8.129,4.64-12.1,7.823-12.87,22.066-24.631,47.253-24C1127.477,527.487,1138.839,526.828,1145.73,530.181Z" transform="translate(-587.424 -95.347)" fill="#0b0754"/>
    <g id="Group_4" data-name="Group 4" transform="translate(485.447 455.46)">
      <path id="Path_28" data-name="Path 28" d="M1081.827,599.411c-1.572,4.718-1.348,4.026-2.536,7.779q-.379,1.2-.736,2.453c4.955-2.86,5.93-3.646,11.587-6.54a171.154,171.154,0,0,1,32.831-12.631q.341-.916.688-1.766C1109.121,590.072,1094.685,592.7,1081.827,599.411Z" transform="translate(-1078.556 -588.706)" fill="#130025"/>
    </g>
    <path id="Path_29" data-name="Path 29" d="M1085.329,568.282c27.635-14.451,46.208-15.753,77.883-13.689v7.629c-26.594.1-52.87,7.325-74.958,18.587-5.94,3.039-9.123,5.114-9.152,5.131Z" transform="translate(-593.447 -111.669)" fill="#7c9af2"/>
    <ellipse id="Ellipse_1" data-name="Ellipse 1" cx="20.929" cy="22.379" rx="20.929" ry="22.379" transform="translate(547.854 425.309)" fill="#8792ce"/>
    <ellipse id="Ellipse_2" data-name="Ellipse 2" cx="20.291" cy="22.379" rx="20.291" ry="22.379" transform="translate(549.13 425.309)" fill="#eae9f3"/>
    <g id="Group_5" data-name="Group 5" transform="translate(547.854 425.309)">
      <ellipse id="Ellipse_3" data-name="Ellipse 3" cx="20.929" cy="22.379" rx="20.929" ry="22.379" transform="translate(0 0)" fill="#4951ec"/>
      <ellipse id="Ellipse_4" data-name="Ellipse 4" cx="20.291" cy="22.379" rx="20.291" ry="22.379" transform="translate(1.275 0)" fill="#92b5f9"/>
      <path id="Path_30" data-name="Path 30" d="M1258.049,527.771a23.14,23.14,0,0,1,8.354-18.1c-.2-.007-.405-.011-.608-.011-11.206,0-20.291,10.02-20.291,22.379s9.084,22.379,20.291,22.379a18.967,18.967,0,0,0,11.938-4.283C1266.807,549.784,1258.049,539.906,1258.049,527.771Z" transform="translate(-1244.228 -509.664)" fill="#eae9f3"/>
    </g>
    <path id="Path_31" data-name="Path 31" d="M1297.726,560.455a3.027,3.027,0,1,1-3.013-3.323A3.179,3.179,0,0,1,1297.726,560.455Z" transform="translate(-724.948 -113.716)" fill="#7c9af2"/>
    <g id="Group_6" data-name="Group 6" transform="translate(333.714 469.484)">
      <path id="Path_32" data-name="Path 32" d="M682.18,705.183a1.4,1.4,0,0,1-1.15-2.193l53.078-76.916a1.4,1.4,0,0,1,2.3,1.589l-53.079,76.916A1.4,1.4,0,0,1,682.18,705.183Z" transform="translate(-680.782 -625.47)" fill="#4951ec"/>
    </g>
    <g id="Group_7" data-name="Group 7" transform="translate(242.644 549.164)">
      <path id="Path_33" data-name="Path 33" d="M443.438,931.335a1.4,1.4,0,0,1-1.021-2.354l88.1-94.185a1.4,1.4,0,0,1,2.043,1.911l-88.1,94.184A1.4,1.4,0,0,1,443.438,931.335Z" transform="translate(-442.039 -834.353)" fill="#4951ec"/>
    </g>
    <g id="Group_8" data-name="Group 8" transform="translate(259.882 498.374)">
      <path id="Path_34" data-name="Path 34" d="M559.487,754.793a1.392,1.392,0,0,1-.814-.262l-70.86-50.79a1.4,1.4,0,1,1,1.63-2.273l70.86,50.79a1.4,1.4,0,0,1-.816,2.536Z" transform="translate(-487.229 -701.205)" fill="#4951ec"/>
    </g>
    <g id="Group_9" data-name="Group 9" transform="translate(330.741 549.164)">
      <path id="Path_35" data-name="Path 35" d="M712.183,999.226a1.4,1.4,0,0,1-1.361-1.081l-37.8-162.075a1.4,1.4,0,1,1,2.724-.635l37.8,162.075a1.4,1.4,0,0,1-1.364,1.717Z" transform="translate(-672.99 -834.353)" fill="#4951ec"/>
    </g>
    <circle id="Ellipse_5" data-name="Ellipse 5" cx="15.735" cy="15.735" r="15.735" transform="matrix(0.257, -0.966, 0.966, 0.257, 312.894, 561.731)" fill="#4951ec"/>
    <path id="Path_36" data-name="Path 36" d="M670.426,819.724A10.027,10.027,0,1,1,660.4,809.7,10.027,10.027,0,0,1,670.426,819.724Z" transform="translate(-328.258 -269.938)" fill="#badcff"/>
    <g id="Group_10" data-name="Group 10" transform="translate(183.766 464.287)">
      <path id="Rectangle_3" data-name="Rectangle 3" d="M19.091,0h43.47A19.091,19.091,0,0,1,81.652,19.091v32.79A19.091,19.091,0,0,1,62.561,70.972H19.09A19.09,19.09,0,0,1,0,51.882V19.091A19.091,19.091,0,0,1,19.091,0Z" fill="#bed1f9"/>
      <path id="Path_37" data-name="Path 37" d="M366.509,613.82a7.247,7.247,0,0,1,.754,3.227v56.408a7.282,7.282,0,0,1-7.282,7.282H292.893a7.253,7.253,0,0,1-3.227-.754,7.282,7.282,0,0,0,6.529,4.055h67.087a7.282,7.282,0,0,0,7.282-7.282V620.349A7.282,7.282,0,0,0,366.509,613.82Z" transform="translate(-288.912 -613.066)" fill="#4951ec"/>
    </g>
    <g id="Group_11" data-name="Group 11" transform="translate(183.766 604.027)">
      <rect id="Rectangle_4" data-name="Rectangle 4" width="81.652" height="70.972" rx="19.091" transform="translate(0 0)" fill="#bed1f9"/>
      <path id="Path_38" data-name="Path 38" d="M366.509,980.154a7.246,7.246,0,0,1,.754,3.227v56.408a7.282,7.282,0,0,1-7.282,7.282H292.893a7.249,7.249,0,0,1-3.227-.754,7.282,7.282,0,0,0,6.529,4.056h67.087a7.283,7.283,0,0,0,7.282-7.282V986.683A7.281,7.281,0,0,0,366.509,980.154Z" transform="translate(-288.912 -979.4)" fill="#4951ec"/>
    </g>
    <g id="Group_12" data-name="Group 12" transform="translate(338.271 412.202)">
      <rect id="Rectangle_5" data-name="Rectangle 5" width="93.162" height="70.972" rx="20.392" transform="translate(93.162 70.972) rotate(180)" fill="#bed1f9"/>
      <path id="Path_39" data-name="Path 39" d="M697.356,477.279a6.528,6.528,0,0,0-.86,3.227v56.408c0,4.022,3.72,7.282,8.308,7.282h76.545a9.24,9.24,0,0,0,3.682-.754,8.483,8.483,0,0,1-7.449,4.055H701.037c-4.589,0-8.308-3.26-8.308-7.282V483.808A7.26,7.26,0,0,1,697.356,477.279Z" transform="translate(-692.729 -476.525)" fill="#4951ec"/>
    </g>
    <g id="Group_13" data-name="Group 13" transform="translate(328.482 688.195)">
      <rect id="Rectangle_6" data-name="Rectangle 6" width="93.162" height="70.972" rx="20.392" transform="translate(93.163 70.972) rotate(180)" fill="#bed1f9"/>
      <path id="Path_40" data-name="Path 40" d="M671.7,1269.047a6.527,6.527,0,0,1-.86-3.227v-56.407c0-4.022,3.72-7.282,8.309-7.282h76.545a9.232,9.232,0,0,1,3.682.754,8.483,8.483,0,0,0-7.449-4.055H675.377c-4.589,0-8.309,3.26-8.309,7.282v56.408A7.26,7.26,0,0,0,671.7,1269.047Z" transform="translate(-667.068 -1198.829)" fill="#4951ec"/>
    </g>
    <g id="Group_14" data-name="Group 14" transform="translate(202.013 477.28)">
      <path id="Path_41" data-name="Path 41" d="M357.361,663.718a2.409,2.409,0,1,1-2.409-2.409A2.409,2.409,0,0,1,357.361,663.718Z" transform="translate(-346.052 -655.434)" fill="#7c9af2"/>
      <path id="Path_42" data-name="Path 42" d="M431.094,647.42a1.513,1.513,0,1,1-1.514-1.513A1.514,1.514,0,0,1,431.094,647.42Z" transform="translate(-392.766 -645.907)" fill="#7c9af2"/>
      <path id="Path_43" data-name="Path 43" d="M356.525,694.247a21,21,0,0,1-15.61-35.053l.529-.585.39.685a3,3,0,0,0,.96,1.025l.551.362-.438.493a18.2,18.2,0,1,0,31.758,13.512,7.54,7.54,0,0,1-6.073-7.39V653.931l1.626-2.478.491.616a2.1,2.1,0,0,0,1.093.719l.761.2-1.166,1.777V667.3a4.727,4.727,0,0,0,9.454,0V654.813L379.506,653l.748-.247a2.108,2.108,0,0,0,1.051-.779l.454-.643,1.894,2.556V667.3a7.529,7.529,0,0,1-6.179,7.409A20.964,20.964,0,0,1,356.525,694.247Z" transform="translate(-335.525 -649.262)" fill="#7c9af2"/>
      <path id="Path_44" data-name="Path 44" d="M450.136,647.42a1.513,1.513,0,1,1-1.513-1.513A1.513,1.513,0,0,1,450.136,647.42Z" transform="translate(-404.545 -645.907)" fill="#7c9af2"/>
      <path id="Path_45" data-name="Path 45" d="M384.654,688.384h-5.7v-5.7h-6.287v5.7h-5.7v6.287h5.7v5.7h6.287v-5.7h5.7Z" transform="translate(-354.979 -668.658)" fill="#7c9af2"/>
    </g>
    <g id="Group_16" data-name="Group 16" transform="translate(345.378 434.931)">
      <g id="Group_15" data-name="Group 15">
        <path id="Path_46" data-name="Path 46" d="M764.9,548.7h-1.818l-3.767-5.2-2.847,11.724-2.193-20.343-5.892,13.254-2.584-4.7-3.3,5.919L738,543.869l-2.024,10-1.9-17.2-6.465,11.674H712.068a.708.708,0,0,0-.708.708h0a.707.707,0,0,0,.708.707h17.062l3.526-6.368,2.692,24.37,3.916-19.359,3.607,4.411,2.911-5.224,2.816,5.119,4.37-9.83,2.668,24.763,4.714-19.409,1.363,1.88h4.13A15.278,15.278,0,0,1,764.9,548.7Z" transform="translate(-711.36 -534.888)" fill="#7c9af2"/>
        <path id="Path_47" data-name="Path 47" d="M864.466,540.741a9.177,9.177,0,0,1,7.185-3.347,7.2,7.2,0,0,1,7.185,7.438c0,4.632-4,10.112-14.37,14.875-10.374-4.763-14.37-10.243-14.37-14.875a7.2,7.2,0,0,1,7.185-7.438A9.177,9.177,0,0,1,864.466,540.741Z" transform="translate(-797.174 -536.438)" fill="#fa7167"/>
      </g>
    </g>
    <g id="Group_17" data-name="Group 17" transform="translate(348.061 702.459)">
      <path id="Path_48" data-name="Path 48" d="M768.027,1269.045l-36.973-4.733a4.289,4.289,0,0,1-3.71-4.8l2.5-19.548a4.289,4.289,0,0,1,4.8-3.71l36.973,4.733a4.289,4.289,0,0,1,3.709,4.8l-2.5,19.548A4.288,4.288,0,0,1,768.027,1269.045Z" transform="translate(-723.908 -1236.221)" fill="#fff" opacity="0.66"/>
      <path id="Path_49" data-name="Path 49" d="M739.952,1250.56l-1.009-2.275a1.822,1.822,0,0,0-1.665-1.083H720.215a1.821,1.821,0,0,0-1.821,1.821v11.586h.03v21.837a1.821,1.821,0,0,0,1.821,1.821h50.333a1.821,1.821,0,0,0,1.821-1.821v-28.981a1.821,1.821,0,0,0-1.821-1.822H741.617A1.822,1.822,0,0,1,739.952,1250.56Z" transform="translate(-718.394 -1243.013)" fill="#7c9af2"/>
      <path id="Path_50" data-name="Path 50" d="M785.4,1286.254a10.056,10.056,0,1,1-10.056-10.056A10.055,10.055,0,0,1,785.4,1286.254Z" transform="translate(-747.403 -1260.948)" fill="#eae9f3"/>
      <path id="Path_51" data-name="Path 51" d="M786.784,1287.179h-5.049v-5.049h-5.573v5.049h-5.049v5.573h5.049v5.049h5.573v-5.049h5.049Z" transform="translate(-751.004 -1264.618)" fill="#fa7167"/>
    </g>
    <g id="Group_18" data-name="Group 18" transform="translate(206.648 611.773)">
      <circle id="Ellipse_6" data-name="Ellipse 6" cx="4.998" cy="4.998" r="4.998" transform="translate(6.901 16.724) rotate(-45)" fill="#fa7167"/>
      <rect id="Rectangle_7" data-name="Rectangle 7" width="7.241" height="6.968" transform="translate(28.822 30.292) rotate(180)" fill="#7c9af2"/>
      <rect id="Rectangle_8" data-name="Rectangle 8" width="5.099" height="1.959" transform="translate(27.752 32.656) rotate(180)" fill="#7c9af2"/>
      <path id="Path_52" data-name="Path 52" d="M400.038,1020.186a7.579,7.579,0,0,0-1.3-4.255v-4.808a2.094,2.094,0,0,0,2.094-2.093v-3.816h7.261v3.816a2.093,2.093,0,0,0,2.093,2.093v12.369a1.953,1.953,0,0,1-1.953,1.953H400.69a1.954,1.954,0,0,1-1.812-1.222A7.579,7.579,0,0,0,400.038,1020.186Z" transform="translate(-379.259 -1002.647)" fill="#7c9af2"/>
      <rect id="Rectangle_9" data-name="Rectangle 9" width="10.739" height="2.566" transform="translate(30.571 2.566) rotate(180)" fill="#7c9af2"/>
      <path id="Path_53" data-name="Path 53" d="M355.163,1042.561q-.034.358-.035.727a7.638,7.638,0,0,0,6.025,7.456,6.593,6.593,0,0,0-2.38,3.078,8.8,8.8,0,0,0,.579,6.846,14.173,14.173,0,0,0,5.7,5.911l-.9,3.184C351.643,1066.209,346.329,1052.335,355.163,1042.561Z" transform="translate(-349.599 -1025.748)" fill="#7c9af2"/>
      <rect id="Rectangle_10" data-name="Rectangle 10" width="10.469" height="7.024" transform="translate(19.204 47.751) rotate(180)" fill="#7c9af2"/>
      <path id="Rectangle_11" data-name="Rectangle 11" d="M0,0H38.859a0,0,0,0,1,0,0V0a3.748,3.748,0,0,1-3.748,3.748H3.749A3.749,3.749,0,0,1,0,0V0A0,0,0,0,1,0,0Z" transform="translate(38.859 51.5) rotate(180)" fill="#7c9af2"/>
      <rect id="Rectangle_12" data-name="Rectangle 12" width="19.992" height="3.512" transform="translate(35.256 38.589) rotate(180)" fill="#fff"/>
    </g>
    <path id="Path_54" data-name="Path 54" d="M1305.055,856.6s-3.837,42.579,1.962,75.006c1.457,8.147,23.951,11.763,36.241,21.017,20.485,15.422,34.764,36.238,38.405,44.509,8.3-3.747,8.254-41.143,3.708-56C1380.428,931.267,1305.055,856.6,1305.055,856.6Z" transform="translate(-732.439 -298.953)" fill="#dde8fe"/>
    <path id="Path_55" data-name="Path 55" d="M1411.718,981.712l-79.241-9.581-49.636,94.57h64.266Z" transform="translate(-719.469 -370.411)" fill="#0b0754"/>
    <path id="Path_56" data-name="Path 56" d="M1425.3,1066.7l64.612-84.989-79.241-9.581-1.415,2.7c12.389,3.243,36.356,10.846,39.914,21.851,3.8,11.755-23.862,52.963-35.846,70.022Z" transform="translate(-797.661 -370.411)" fill="#0b0754" opacity="0.44"/>
    <path id="Path_57" data-name="Path 57" d="M1323.425,960.852l-50.507,97.183,3.785,1.69,49.636-94.57,79.241,9.581-4.828-3.783Z" transform="translate(-713.331 -363.434)" fill="#4951ec"/>
    <g id="Group_21" data-name="Group 21" transform="translate(675.897 545.381)">
      <path id="Path_58" data-name="Path 58" d="M1774.388,949.542l4.438,16.945,14.265-5.525-2.563-15.008Z" transform="translate(-1699.409 -899.6)" fill="#fb9390"/>
      <g id="Group_20" data-name="Group 20">
        <path id="Path_59" data-name="Path 59" d="M1589.083,835.973c-1.226-1.752-9.583-12.468-11.007-11.472s3.718,8.206,4.484,9.3a4.641,4.641,0,0,0-4.381,3.065c-.969,2.209,5.124,12.725,7.678,16.9,2.23-.7,5.522-3.366,5.409-5.666C1591.271,843.774,1590.022,837.316,1589.083,835.973Z" transform="translate(-1577.828 -824.436)" fill="#fb9390"/>
        <path id="Path_60" data-name="Path 60" d="M1786.851,948.1l-12.463,2.771,1.617,6.175a11.806,11.806,0,0,0,8.334-5.6A38.2,38.2,0,0,1,1786.851,948.1Z" transform="translate(-1699.409 -900.926)" fill="#ef7f7f" opacity="0.53" style="mix-blend-mode: multiply;isolation: isolate"/>
        <path id="Path_61" data-name="Path 61" d="M1748.279,1610.3l-1.715,9.71-7.641.545,1.3-17.02Z" transform="translate(-1677.472 -1306.346)" fill="#fb9390"/>
        <path id="Path_62" data-name="Path 62" d="M1718.208,1640.5s-7.066.127-8.612-1.1-3.183,1.139-5.683,4.3-11.824,2.78-12.963,5.274c-.861,1.889,26.815,1.333,28.214,1.294C1720.149,1650.249,1718.208,1640.5,1718.208,1640.5Z" transform="translate(-1647.787 -1328.328)" fill="#0b0754"/>
        <path id="Path_63" data-name="Path 63" d="M1802.667,1606.322l-1.715,9.71-7.641.546,1.3-17.021Z" transform="translate(-1711.114 -1303.882)" fill="#fb9390"/>
        <path id="Path_64" data-name="Path 64" d="M1773.221,1636.52s-7.066.127-8.613-1.094-3.184,1.139-5.683,4.3-11.312,3.624-12.556,6.067,26.586,2.047,27.2,1.274S1773.221,1636.52,1773.221,1636.52Z" transform="translate(-1682.053 -1325.866)" fill="#0b0754"/>
        <path id="Path_65" data-name="Path 65" d="M1775.417,1224.365l.8,69.494,5.406,67.576,10.138,1.731s8.442-119.381,17.179-132.57-1.161-34.931-1.205-34.97h0Z" transform="translate(-1700.045 -1054.032)" fill="#3e4edd"/>
        <path id="Path_66" data-name="Path 66" d="M1804.159,1232.517a34.34,34.34,0,0,0,5.836-21.757c-.225-2.774-4.677-5.848-5.237-8.191l-29.341,26.091.8,69.494,3.011,37.637c5.409-32.419,15.462-78.977,17.478-92.31C1797.568,1242.286,1800.44,1238.131,1804.159,1232.517Z" transform="translate(-1700.045 -1058.328)" fill="#4951ec"/>
        <path id="Path_67" data-name="Path 67" d="M1735.752,1185.839s-5.151,63.413-5.567,84.607c-.425,21.656,2.3,86.613,2.3,86.613l11.937.054s17.725-105.664,20.684-125.422c0,0-1.689,2.845,7.048-10.344s2.336-31.736,2.292-31.775l-15.521,5.794Z" transform="translate(-1672.04 -1047.98)" fill="#4951ec"/>
        <path id="Path_68" data-name="Path 68" d="M1824.442,1029.266l-11.016,18.49,4.8,11.01s29.235-23,26.722-29.3c-2.116-5.308-31.332-36.674-39.225-45.29a5.292,5.292,0,0,0-5.644-1.421l-13.552,4.7S1825.638,1025.2,1824.442,1029.266Z" transform="translate(-1706.917 -922.179)" fill="#e8605d"/>
        <g id="Group_19" data-name="Group 19" transform="translate(55.364 56.677)">
          <path id="Path_69" data-name="Path 69" d="M1735.341,976.7s-3.474,89.211-12.376,107.3c0,0,40.388-5.952,58.925-5.948,0,0-.438-75.564-9.4-92.327S1744.058,972.041,1735.341,976.7Z" transform="translate(-1722.965 -973.017)" fill="#fa7167"/>
        </g>
        <path id="Path_70" data-name="Path 70" d="M1773.368,1032.331c8.646-4.594,11.422-10.942,11.587-19.021.12-5.876-19.6-2.805-32.562-1.994-.239,4.585-.556,10.242-.959,16.509C1756.409,1033.282,1767.115,1035.653,1773.368,1032.331Z" transform="translate(-1685.21 -939.085)" fill="#e8605d"/>
        <path id="Path_71" data-name="Path 71" d="M1605.274,923.259s27.963,23.967,50.255,23.067,25.21-6.259,27.124-12.2-10.792-14.091-23.535-16.536-35.465-2.2-38.958-5.421-21.421-27.414-22.933-31.625l-10.812,4.6Z" transform="translate(-1583.139 -859.139)" fill="#fa7167"/>
        <path id="Path_72" data-name="Path 72" d="M1764.773,882.973a20.472,20.472,0,0,0-7,6.651,32.229,32.229,0,0,1-6.679,7.342l1.514,2.44s-3.446,2.487-3.116,6.268c.728,8.333,13.611,9.8,20.025,4.958,1.744-1.315,7.149-2.964,8.916-5.929C1783.163,896.758,1781.771,884.532,1764.773,882.973Z" transform="translate(-1683.994 -860.644)" fill="#fb9390"/>
        <path id="Path_73" data-name="Path 73" d="M1784.748,881.874s-4.286-7.937-2.263-13.521a20.388,20.388,0,0,1-8.452-2.218c-6.788-3.837,1.463-18.115,11.658-7.937,0,0-.877-6.9,6.345-5.673s9.86,4.112,8.557,10.971,1.689,3.821,3.887,7.826-9.378,18.4-14.8,18.927l-5.417.531s7.733-4.332,5.564-7.611A3.538,3.538,0,0,0,1784.748,881.874Z" transform="translate(-1697.658 -841.72)" fill="#0b0754"/>
      </g>
    </g>
    <path id="Path_74" data-name="Path 74" d="M1363.5,1131.591c1.441-1.15,13.507,6.346,20.438,10.827.014-.095.027-.187.042-.28-6.522-4.838-17.94-10.612-15.328-12.274,1.339-.851,30,10.7,30,10.7,3.018,1.367,3.157,1.5,6.27,2.873-.739-1.8-8.238-14.006-3.177-13.407l16.74,21.889c2.839,4.655,2.74,7.477,2.035,9.905-.868,2.988-5.066,11-11.906,12.612-6.589,1.551-24.448-8.536-27.244-11.148-3-2.584-23.48-20.483-20.209-25.47,0,0,17.072,16.665,18.884,14.6.106-.477-16.879-11.756-18.209-16.163-.952-3.155,13.9,6.462,20.408,11.282C1376.413,1142.748,1362.51,1132.385,1363.5,1131.591Z" transform="translate(-767.697 -467.948)" fill="#fb9390"/>
    <g id="Group_25" data-name="Group 25" transform="translate(211.486 691.921)">
      <path id="Rectangle_13" data-name="Rectangle 13" d="M47.077,0h0A47.077,47.077,0,0,1,94.155,47.077v80.975A47.078,47.078,0,0,1,47.077,175.13h0A47.077,47.077,0,0,1,0,128.052V47.077A47.077,47.077,0,0,1,47.077,0Z" fill="#4951ec"/>
      <path id="Path_75" data-name="Path 75" d="M548.328,1208.6h-2.673a20.8,20.8,0,0,1,20.8,20.8v133.532a20.8,20.8,0,0,1-20.8,20.8h2.673a20.8,20.8,0,0,0,20.8-20.8V1229.4A20.8,20.8,0,0,0,548.328,1208.6Z" transform="translate(-474.972 -1208.597)" fill="#4951ec"/>
      <rect id="Rectangle_14" data-name="Rectangle 14" width="169.784" height="88.809" rx="44.404" transform="translate(91.482 2.673) rotate(90)" fill="#bed1f9"/>
      <g id="Group_22" data-name="Group 22" transform="translate(38.011 10.032)">
        <path id="Path_76" data-name="Path 76" d="M478.678,1236.85h-17.7a.977.977,0,0,1,0-1.953h17.7a.977.977,0,1,1,0,1.953Z" transform="translate(-460.005 -1234.897)" fill="#7c9af2"/>
      </g>
      <g id="Group_23" data-name="Group 23" transform="translate(36.121 16.341)">
        <path id="Path_77" data-name="Path 77" d="M477.409,1253.577H456.12a1.071,1.071,0,1,1,0-2.142h21.289a1.071,1.071,0,1,1,0,2.142Z" transform="translate(-455.049 -1251.435)" fill="#7c9af2"/>
      </g>
      <path id="Path_78" data-name="Path 78" d="M437.591,1251.858a1.47,1.47,0,1,1-1.47-1.47A1.47,1.47,0,0,1,437.591,1251.858Z" transform="translate(-406.311 -1234.446)" fill="#7c9af2"/>
      <circle id="Ellipse_7" data-name="Ellipse 7" cx="8.019" cy="8.019" r="8.019" transform="translate(39.059 153.018)" fill="#92b5f9"/>
      <circle id="Ellipse_8" data-name="Ellipse 8" cx="8.019" cy="8.019" r="8.019" transform="translate(37.74 153.018)" fill="#dde8fe"/>
      <path id="Rectangle_15" data-name="Rectangle 15" d="M11.187,0H67.4A11.187,11.187,0,0,1,78.584,11.187V105.4A11.186,11.186,0,0,1,67.4,116.585H11.187A11.187,11.187,0,0,1,0,105.4V11.187A11.187,11.187,0,0,1,11.187,0Z" transform="translate(7.625 31.823)" fill="#92b5f9"/>
      <path id="Rectangle_16" data-name="Rectangle 16" d="M6.128,0H106.279a6.128,6.128,0,0,1,6.128,6.128V68.891a6.129,6.129,0,0,1-6.129,6.129H6.129A6.129,6.129,0,0,1,0,68.891V6.128A6.128,6.128,0,0,1,6.128,0Z" transform="translate(84.427 33.912) rotate(90)" fill="#fff"/>
      <path id="Path_79" data-name="Path 79" d="M457.879,1297.5h-70.7a2.371,2.371,0,0,0-2.159,2.532V1316.3h75.02v-16.273A2.371,2.371,0,0,0,457.879,1297.5Z" transform="translate(-375.611 -1263.585)" fill="#bed1f9"/>
      <g id="Group_24" data-name="Group 24" transform="translate(26.929 56.175)">
        <rect id="Rectangle_17" data-name="Rectangle 17" width="42.648" height="2.867" fill="#7c9af2"/>
      </g>
      <path id="Path_80" data-name="Path 80" d="M404.6,1355.2l4.03,2.728v-5.456Z" transform="translate(-387.725 -1297.589)" fill="#7c9af2"/>
      <path id="Path_81" data-name="Path 81" d="M554.847,1355.2l-4.029,2.728v-5.456Z" transform="translate(-478.165 -1297.589)" fill="#7c9af2"/>
      <path id="Rectangle_18" data-name="Rectangle 18" d="M4.387,0H21.081a4.387,4.387,0,0,1,4.387,4.387v0a4.387,4.387,0,0,1-4.387,4.387H4.388A4.388,4.388,0,0,1,0,4.387v0A4.387,4.387,0,0,1,4.387,0Z" transform="translate(11.723 38.717)" fill="#7c9af2"/>
      <rect id="Rectangle_19" data-name="Rectangle 19" width="8.078" height="8.775" rx="4.039" transform="translate(72.643 38.717)" fill="#7c9af2"/>
      <rect id="Rectangle_20" data-name="Rectangle 20" width="1.292" height="5.693" transform="translate(76.036 40.154)" fill="#fff"/>
      <rect id="Rectangle_21" data-name="Rectangle 21" width="1.515" height="4.856" transform="translate(74.254 43.758) rotate(-90)" fill="#fff"/>
      <rect id="Rectangle_22" data-name="Rectangle 22" width="8.297" height="71.751" transform="translate(13.149 70.621)" fill="#dde8fe"/>
      <rect id="Rectangle_23" data-name="Rectangle 23" width="8.297" height="71.751" transform="translate(23.107 70.621)" fill="#dde8fe"/>
      <rect id="Rectangle_24" data-name="Rectangle 24" width="8.297" height="71.751" transform="translate(33.141 70.621)" fill="#dde8fe"/>
      <rect id="Rectangle_25" data-name="Rectangle 25" width="8.297" height="71.751" transform="translate(43.175 70.621)" fill="#dde8fe"/>
      <rect id="Rectangle_26" data-name="Rectangle 26" width="8.297" height="71.751" transform="translate(53.21 70.621)" fill="#dde8fe"/>
      <rect id="Rectangle_27" data-name="Rectangle 27" width="8.297" height="71.751" transform="translate(63.244 70.621)" fill="#dde8fe"/>
      <rect id="Rectangle_28" data-name="Rectangle 28" width="8.297" height="71.751" transform="translate(73.279 70.621)" fill="#dde8fe"/>
      <rect id="Rectangle_29" data-name="Rectangle 29" width="8.297" height="5.449" transform="translate(13.149 62.391)" fill="#7c9af2"/>
      <rect id="Rectangle_30" data-name="Rectangle 30" width="8.297" height="5.449" transform="translate(23.107 62.391)" fill="#7c9af2"/>
      <rect id="Rectangle_31" data-name="Rectangle 31" width="8.297" height="5.449" transform="translate(33.141 62.391)" fill="#7c9af2"/>
      <rect id="Rectangle_32" data-name="Rectangle 32" width="8.297" height="5.449" transform="translate(43.175 62.391)" fill="#7c9af2"/>
      <rect id="Rectangle_33" data-name="Rectangle 33" width="8.297" height="5.449" transform="translate(53.21 62.391)" fill="#7c9af2"/>
      <rect id="Rectangle_34" data-name="Rectangle 34" width="8.297" height="5.449" transform="translate(63.244 62.391)" fill="#fa7167"/>
      <rect id="Rectangle_35" data-name="Rectangle 35" width="8.297" height="5.449" transform="translate(73.279 62.391)" fill="#fa7167"/>
      <rect id="Rectangle_36" data-name="Rectangle 36" width="70.695" height="1.782" transform="translate(11.723 78.889)" fill="#fff"/>
      <rect id="Rectangle_37" data-name="Rectangle 37" width="70.695" height="1.782" transform="translate(11.723 89.596)" fill="#fff"/>
      <rect id="Rectangle_38" data-name="Rectangle 38" width="70.695" height="1.782" transform="translate(11.723 100.304)" fill="#fff"/>
      <rect id="Rectangle_39" data-name="Rectangle 39" width="70.695" height="1.782" transform="translate(11.723 111.011)" fill="#fff"/>
      <rect id="Rectangle_40" data-name="Rectangle 40" width="70.695" height="1.782" transform="translate(11.723 121.719)" fill="#fff"/>
      <rect id="Rectangle_41" data-name="Rectangle 41" width="70.696" height="1.782" transform="translate(11.569 132.426)" fill="#fff"/>
      <path id="Path_82" data-name="Path 82" d="M469.835,1435.55l-6.807-2.932,8.53,10.442,7.283-16.343Z" transform="translate(-423.864 -1343.514)" fill="#fa7167"/>
    </g>
  </g>
</svg>
